<svg width="240" height="240" viewBox="0 0 240 240" fill="none" xmlns="http://www.w3.org/2000/svg">
<path d="M180 0C213.137 0 240 26.8629 240 60V180C240 213.137 213.137 240 180 240H60C26.8629 240 0 213.137 0 180V60C0 26.8629 26.8629 0 60 0H180ZM120 184C111.163 184 104 191.163 104 200C104 208.837 111.163 216 120 216C128.837 216 136 208.837 136 200C136 191.163 128.837 184 120 184ZM104 72V168H136V72H104ZM120 24C111.163 24 104 31.1634 104 40C104 48.8366 111.163 56 120 56C128.837 56 136 48.8366 136 40C136 31.1634 128.837 24 120 24Z" fill="black"/>
</svg>
